<svg width="132" height="101" viewBox="0 0 132 101" fill="none" xmlns="http://www.w3.org/2000/svg">
<rect x="33" y="33" width="68" height="68" rx="5" fill="#A295F4" fill-opacity="0.8"/>
<circle cx="128" cy="56" r="4" fill="#B4AAF6"/>
<circle cx="4" cy="69" r="4" fill="#B4AAF6"/>
<circle cx="39" cy="6" r="6" fill="#B4AAF6"/>
<path d="M71.8288 53.3865C71.8711 53.252 71.8858 53.1107 71.8723 52.9706C71.8588 52.8305 71.8172 52.6944 71.75 52.5701C71.6827 52.4457 71.5911 52.3355 71.4804 52.2458C71.3697 52.1562 71.2421 52.0887 71.1048 52.0473C70.9675 52.006 70.8232 51.9915 70.6801 52.0048C70.5371 52.018 70.3982 52.0587 70.2712 52.1246C70.1443 52.1905 70.0318 52.2802 69.9402 52.3886C69.8487 52.497 69.7798 52.6221 69.7376 52.7566L60.9876 80.612C60.9023 80.8836 60.9307 81.1773 61.0665 81.4285C61.2022 81.6796 61.4343 81.8677 61.7116 81.9512C61.989 82.0347 62.2888 82.0069 62.5452 81.8739C62.8016 81.7409 62.9935 81.5136 63.0788 81.242L71.8288 53.3865ZM59.5263 58.7412C59.6282 58.8407 59.709 58.959 59.7641 59.0891C59.8193 59.2193 59.8477 59.3588 59.8477 59.4997C59.8477 59.6407 59.8193 59.7802 59.7641 59.9104C59.709 60.0405 59.6282 60.1587 59.5263 60.2583L52.6423 66.9993L59.5263 73.7403C59.7317 73.9415 59.8471 74.2143 59.8471 74.4988C59.8471 74.7833 59.7317 75.0562 59.5263 75.2573C59.321 75.4585 59.0424 75.5715 58.752 75.5715C58.4615 75.5715 58.183 75.4585 57.9776 75.2573L50.3213 67.7578C50.2195 67.6583 50.1387 67.54 50.0835 67.4099C50.0284 67.2797 50 67.1402 50 66.9993C50 66.8583 50.0284 66.7188 50.0835 66.5886C50.1387 66.4585 50.2195 66.3403 50.3213 66.2407L57.9776 58.7412C58.0792 58.6414 58.1999 58.5623 58.3328 58.5083C58.4656 58.4543 58.6081 58.4265 58.752 58.4265C58.8958 58.4265 59.0383 58.4543 59.1712 58.5083C59.304 58.5623 59.4247 58.6414 59.5263 58.7412ZM73.2901 58.7412C73.1882 58.8407 73.1074 58.959 73.0523 59.0891C72.9971 59.2193 72.9687 59.3588 72.9687 59.4997C72.9687 59.6407 72.9971 59.7802 73.0523 59.9104C73.1074 60.0405 73.1882 60.1587 73.2901 60.2583L80.1741 66.9993L73.2901 73.7403C73.1884 73.8399 73.1077 73.9581 73.0527 74.0883C72.9976 74.2184 72.9693 74.3579 72.9693 74.4988C72.9693 74.6397 72.9976 74.7792 73.0527 74.9093C73.1077 75.0395 73.1884 75.1577 73.2901 75.2573C73.3918 75.3569 73.5125 75.436 73.6454 75.4899C73.7782 75.5438 73.9206 75.5715 74.0645 75.5715C74.2083 75.5715 74.3507 75.5438 74.4835 75.4899C74.6164 75.436 74.7371 75.3569 74.8388 75.2573L82.4951 67.7578C82.5969 67.6583 82.6777 67.54 82.7329 67.4099C82.788 67.2797 82.8164 67.1402 82.8164 66.9993C82.8164 66.8583 82.788 66.7188 82.7329 66.5886C82.6777 66.4585 82.5969 66.3403 82.4951 66.2407L74.8388 58.7412C74.7372 58.6414 74.6165 58.5623 74.4837 58.5083C74.3508 58.4543 74.2083 58.4265 74.0645 58.4265C73.9206 58.4265 73.7781 58.4543 73.6453 58.5083C73.5124 58.5623 73.3917 58.6414 73.2901 58.7412Z" fill="black"/>
</svg>
