<svg width="120" height="79" viewBox="0 0 120 79" fill="none" xmlns="http://www.w3.org/2000/svg">
<rect x="26" y="11" width="68" height="68" rx="5" fill="#F27DD1"/>
<circle cx="116" cy="41" r="4" fill="#F27DD1"/>
<circle cx="4" cy="67" r="4" fill="#F27DD1"/>
<circle cx="6" cy="6" r="6" fill="#F27DD1"/>
<path d="M71.4896 42.1521L73.0354 40.6062C74.1729 39.4688 74.1729 37.6167 73.0354 36.4792L70.9792 34.4229C69.8417 33.2854 67.9896 33.2854 66.8521 34.4229L65.3062 35.9688L71.4896 42.1521ZM65.3062 44.2229L54.8063 54.7083H52.75V52.6521L63.2354 42.1667L65.3062 44.2229ZM63.2354 38.025L49.8333 51.4417V57.625H56.0167L69.4188 44.2229L63.2354 38.025ZM71.7083 52.5208C71.7083 55.7146 68.0042 57.625 64.4167 57.625C63.6146 57.625 62.9583 56.9688 62.9583 56.1667C62.9583 55.3646 63.6146 54.7083 64.4167 54.7083C66.6625 54.7083 68.7917 53.6438 68.7917 52.5208C68.7917 51.8354 68.0917 51.2521 66.9979 50.7708L69.1562 48.6125C70.7167 49.5312 71.7083 50.7563 71.7083 52.5208ZM50.6792 46.4688C49.2646 45.6521 48.375 44.5875 48.375 43.0417C48.375 40.4167 51.1313 39.2063 53.5667 38.1417C55.0687 37.4708 57.125 36.5667 57.125 35.75C57.125 35.1521 55.9875 34.2917 54.2083 34.2917C52.3708 34.2917 51.5833 35.1812 51.5396 35.225C51.0292 35.8229 50.1104 35.8958 49.4979 35.4C49.2055 35.1598 49.0188 34.8146 48.9779 34.4384C48.937 34.0622 49.0452 33.6849 49.2792 33.3875C49.4396 33.1833 50.9417 31.375 54.2083 31.375C57.475 31.375 60.0417 33.3 60.0417 35.75C60.0417 38.4771 57.2271 39.7167 54.7333 40.8104C53.3625 41.4083 51.2917 42.3125 51.2917 43.0417C51.2917 43.4938 51.9188 43.9167 52.8521 44.2958L50.6792 46.4688Z" fill="black"/>
</svg>
