<svg width="132" height="88" viewBox="0 0 132 88" fill="none" xmlns="http://www.w3.org/2000/svg">
<rect x="31" y="20" width="68" height="68" rx="5" fill="#81CBEF" fill-opacity="0.8"/>
<circle cx="42" cy="4" r="4" fill="#9AD5F2"/>
<circle cx="4" cy="67" r="4" fill="#9AD5F2"/>
<circle cx="126" cy="57" r="6" fill="#9AD5F2"/>
<path d="M73.8853 38.9181C74.7168 38.918 75.5172 39.2336 76.125 39.801C76.7327 40.3684 77.1024 41.1453 77.1593 41.9748L77.1666 42.1979V64.7992C77.1667 65.6306 76.8512 66.4311 76.2838 67.0388C75.7164 67.6465 74.9394 68.0162 74.1099 68.0731L73.8853 68.0804H57.1145C56.2831 68.0805 55.4826 67.765 54.8749 67.1976C54.2671 66.6302 53.8975 65.8532 53.8405 65.0237L53.8333 64.8021V42.1994C53.8331 41.3679 54.1487 40.5675 54.7161 39.9597C55.2835 39.352 56.0604 38.9823 56.8899 38.9254L57.1145 38.9181H73.8853ZM73.8853 41.1056H57.1145C56.8502 41.1056 56.5948 41.2014 56.3956 41.3751C56.1965 41.5488 56.0669 41.7888 56.031 42.0506L56.0208 42.1994V64.8006C56.0208 65.3548 56.432 65.8127 56.9658 65.8842L57.1145 65.8944H73.8853C74.1496 65.8944 74.405 65.7986 74.6042 65.6249C74.8034 65.4512 74.9329 65.2112 74.9689 64.9494L74.9791 64.8006V42.1994C74.9791 41.9351 74.8834 41.6797 74.7096 41.4805C74.5359 41.2813 74.2959 41.1518 74.0341 41.1158L73.8853 41.1042V41.1056ZM65.8616 54.954C66.1407 54.9511 66.4103 55.0551 66.6152 55.2446C66.8202 55.434 66.9449 55.6947 66.9639 55.9731C66.9829 56.2516 66.8948 56.5268 66.7175 56.7424C66.5402 56.9579 66.2872 57.0976 66.0103 57.1327L65.8616 57.1415H59.302C59.0249 57.1414 58.7581 57.0361 58.5556 56.8469C58.3531 56.6577 58.23 56.3987 58.2111 56.1223C58.1922 55.8458 58.279 55.5724 58.4539 55.3575C58.6288 55.1425 58.8787 55.0019 59.1533 54.9642L59.302 54.954H65.8616ZM71.6978 50.5833C71.975 50.5834 72.2417 50.6887 72.4442 50.8779C72.6467 51.0671 72.7698 51.3261 72.7887 51.6025C72.8076 51.879 72.7208 52.1523 72.546 52.3673C72.3711 52.5823 72.1211 52.7228 71.8466 52.7606L71.6978 52.7708H59.302C59.0229 52.7737 58.7533 52.6697 58.5484 52.4802C58.3434 52.2907 58.2187 52.0301 58.1997 51.7516C58.1807 51.4732 58.2688 51.198 58.4461 50.9824C58.6234 50.7668 58.8764 50.6272 59.1533 50.5921L59.302 50.5833H71.6978ZM71.6978 46.2098C71.975 46.2099 72.2417 46.3151 72.4442 46.5043C72.6467 46.6935 72.7698 46.9525 72.7887 47.229C72.8076 47.5055 72.7208 47.7788 72.546 47.9938C72.3711 48.2087 72.1211 48.3493 71.8466 48.3871L71.6978 48.3973H59.302C59.0249 48.3972 58.7581 48.2919 58.5556 48.1027C58.3531 47.9136 58.23 47.6546 58.2111 47.3781C58.1922 47.1016 58.279 46.8283 58.4539 46.6133C58.6288 46.3983 58.8787 46.2578 59.1533 46.22L59.302 46.2083H71.6978V46.2098Z" fill="black"/>
</svg>
